<svg xmlns="http://www.w3.org/2000/svg" width="97.356" height="94.239" viewBox="0 0 97.356 94.239">
  <g id="Groupe_8" data-name="Groupe 8" transform="translate(0 0)">
    <path id="Tracé_5" data-name="Tracé 5" d="M223.9,591.691h1.439l-.725-2Z" transform="translate(-160.394 -501.71)" fill="none"/>
    <path id="Tracé_6" data-name="Tracé 6" d="M116.174,587.74a2.661,2.661,0,1,0,2.655,2.655A2.663,2.663,0,0,0,116.174,587.74Z" transform="translate(-97.002 -500.59)" fill="none"/>
    <path id="Tracé_7" data-name="Tracé 7" d="M193.878,588.629a.889.889,0,0,0-.889-.889h-.714v1.766h.714A.886.886,0,0,0,193.878,588.629Z" transform="translate(-142.235 -500.59)" fill="none"/>
    <path id="Tracé_8" data-name="Tracé 8" d="M79.174,592.43a4.407,4.407,0,0,0,3.053-1.228l-1.252-1.252a2.659,2.659,0,1,1-1.8-4.609,2.619,2.619,0,0,1,1.8.714l1.252-1.263a4.43,4.43,0,1,0-3.053,7.638Z" transform="translate(-74.741 -498.191)" fill="#434244"/>
    <path id="Tracé_9" data-name="Tracé 9" d="M118.226,588a4.433,4.433,0,1,0-4.433,4.434A4.438,4.438,0,0,0,118.226,588Zm-4.433,2.667A2.661,2.661,0,1,1,116.448,588,2.666,2.666,0,0,1,113.792,590.664Z" transform="translate(-94.62 -498.191)" fill="#434244"/>
    <path id="Tracé_10" data-name="Tracé 10" d="M157.587,592.43v-8.867H155.68l-2.585,6.481-2.6-6.481h-1.907v8.867h1.766V588l1.778,4.433h1.907L155.821,588v4.433Z" transform="translate(-117.15 -498.192)" fill="#434244"/>
    <path id="Tracé_11" data-name="Tracé 11" d="M189.893,588.886h.725a2.661,2.661,0,0,0-.012-5.323h-2.48v8.867h1.766Zm0-3.544h.714a.883.883,0,1,1,0,1.766h-.714Z" transform="translate(-139.853 -498.191)" fill="#434244"/>
    <path id="Tracé_12" data-name="Tracé 12" d="M220.937,583.563h-1.884l-3.205,8.867h1.884l.9-2.48h2.726l.9,2.48h1.884Zm-1.661,4.609.714-2,.725,2Z" transform="translate(-155.772 -498.191)" fill="#434244"/>
    <path id="Tracé_13" data-name="Tracé 13" d="M260.567,592.43v-8.867H258.8v5.919l-3.544-5.919h-2.071v8.867h1.766v-5.907l3.556,5.907Z" transform="translate(-177.212 -498.192)" fill="#434244"/>
    <path id="Tracé_14" data-name="Tracé 14" d="M290.357,583.563H288.38l2.316,4.644v4.223h1.766v-4.223l2.316-4.644H292.8l-1.217,2.457Z" transform="translate(-197.423 -498.192)" fill="#434244"/>
    <path id="Tracé_15" data-name="Tracé 15" d="M243.152,402.089l.01.008-.01-.008c-.06-.051-.123-.1-.185-.149h0C243.027,401.988,243.091,402.037,243.152,402.089Z" transform="translate(-171.344 -393.893)" fill="#fffbf8"/>
    <path id="Tracé_16" data-name="Tracé 16" d="M241.153,400.526l.006,0,0,0c.208.158.415.32.613.48l0,0,0,0c-.2-.16-.4-.321-.613-.48l-.005,0-.006,0-.167-.128-.069-.052.068.052C241.042,400.441,241.1,400.482,241.153,400.526Z" transform="translate(-170.167 -392.979)" fill="#fffbf8"/>
    <path id="Tracé_17" data-name="Tracé 17" d="M240.738,400.211l-.009-.007.006,0-.008-.006,0,0Z" transform="translate(-170.058 -392.897)" fill="#fffbf8"/>
    <path id="Tracé_18" data-name="Tracé 18" d="M240.526,400.054l-.01-.007-.117-.086.116.087Z" transform="translate(-169.871 -392.758)" fill="#fffbf8"/>
    <path id="Tracé_19" data-name="Tracé 19" d="M239.513,399.313l.09.065-.09-.065-.065-.046h0Z" transform="translate(-169.324 -392.36)" fill="#fffbf8"/>
    <path id="Tracé_20" data-name="Tracé 20" d="M239.175,399.071l0,0c-.062-.045-.124-.089-.187-.133.063.044.125.088.187.135Z" transform="translate(-169.057 -392.169)" fill="#fffbf8"/>
    <path id="Tracé_21" data-name="Tracé 21" d="M237.422,397.85l-.006,0-.208-.141c.069.046.138.094.207.142Z" transform="translate(-168.038 -391.463)" fill="#fffbf8"/>
    <path id="Tracé_22" data-name="Tracé 22" d="M236.318,397.115l-.016-.011h0Z" transform="translate(-167.517 -391.117)" fill="#fffbf8"/>
    <path id="Tracé_23" data-name="Tracé 23" d="M235.561,396.624c.075.047.149.1.224.145-.074-.049-.149-.1-.223-.145l-.012-.008h0Z" transform="translate(-167.084 -390.837)" fill="#fffbf8"/>
    <path id="Tracé_24" data-name="Tracé 24" d="M233.282,395.213l.186.112c.118.069.235.143.35.216l.016.01h0l0,0-.014-.009c-.115-.074-.233-.146-.35-.217l-.186-.112,0,0-.085-.05.086.051Z" transform="translate(-165.733 -390.001)" fill="#fffbf8"/>
    <path id="Tracé_25" data-name="Tracé 25" d="M243.719,402.551l.029.024-.03-.025c-.084-.07-.166-.138-.248-.2l-.013-.01.012.011C243.553,402.412,243.634,402.479,243.719,402.551Z" transform="translate(-171.627 -394.122)" fill="#fffbf8"/>
    <path id="Tracé_26" data-name="Tracé 26" d="M103.574,457.534l0,.015,0,.015,0-.015Z" transform="translate(-91.296 -425.819)" fill="#fffbf8"/>
    <path id="Tracé_27" data-name="Tracé 27" d="M103.555,457.692l0,.023v0Z" transform="translate(-91.285 -425.91)" fill="#fffbf8"/>
    <path id="Tracé_28" data-name="Tracé 28" d="M103.681,456.487c.008-.063.018-.126.028-.19l.007-.045-.007.045c-.009.063-.019.126-.027.19v0Z" transform="translate(-91.359 -425.083)" fill="#fffbf8"/>
    <path id="Tracé_29" data-name="Tracé 29" d="M103.627,456.918c-.005.038-.01.075-.016.113l-.014.1.015-.1C103.617,456.993,103.622,456.955,103.627,456.918Z" transform="translate(-91.312 -425.466)" fill="#fffbf8"/>
    <path id="Tracé_30" data-name="Tracé 30" d="M103.31,459.552l.014-.125c0,.042-.01.083-.014.125v.009l0-.006Z" transform="translate(-91.146 -426.906)" fill="#fffbf8"/>
    <path id="Tracé_31" data-name="Tracé 31" d="M102.894,464.563c0,.072-.008.145-.012.218v0C102.886,464.708,102.891,464.635,102.894,464.563Z" transform="translate(-90.901 -429.856)" fill="#fffbf8"/>
    <path id="Tracé_32" data-name="Tracé 32" d="M103.073,461.925c0,.042-.007.083-.011.126l-.005.064c0-.021,0-.043.006-.064C103.066,462.008,103.069,461.967,103.073,461.925Z" transform="translate(-91.001 -428.341)" fill="#fffbf8"/>
    <path id="Tracé_33" data-name="Tracé 33" d="M102.969,462.933l0-.056c0,.019,0,.037,0,.057-.011.135-.02.278-.029.441v0C102.947,463.212,102.957,463.069,102.969,462.933Z" transform="translate(-90.933 -428.888)" fill="#fffbf8"/>
    <path id="Tracé_34" data-name="Tracé 34" d="M147.851,498.355c.015.034.032.068.048.1C147.883,498.423,147.866,498.39,147.851,498.355Z" transform="translate(-116.724 -449.261)" fill="#fffbf8"/>
    <path id="Tracé_35" data-name="Tracé 35" d="M244.818,403.469c-.07-.06-.14-.12-.213-.181l-.143-.119.142.119C244.678,403.348,244.748,403.408,244.818,403.469Z" transform="translate(-172.203 -394.6)" fill="#fffbf8"/>
    <path id="Tracé_36" data-name="Tracé 36" d="M160.837,408.667a30.387,30.387,0,0,1,15.321-8.915,30.354,30.354,0,0,0-15.321,8.915Z" transform="translate(-124.182 -392.638)" fill="#fffbf8"/>
    <path id="Tracé_37" data-name="Tracé 37" d="M160.579,513.454h0A30.625,30.625,0,0,1,149,500.807a30.613,30.613,0,0,0,11.58,12.647Z" transform="translate(-117.384 -450.669)" fill="#fffbf8"/>
    <path id="Tracé_38" data-name="Tracé 38" d="M102.78,468.623h0c0,.041,0,.081,0,.122s0,.072,0,.107c0-.036,0-.072,0-.108Z" transform="translate(-90.842 -432.187)" fill="#fffbf8"/>
    <path id="Tracé_39" data-name="Tracé 39" d="M110.665,488.294a26.311,26.311,0,0,1-7.882-18.452l0-.1v-.117c0-.036,0-.07,0-.106,0,.035,0,.07,0,.1s0,.078,0,.117v.1a26.475,26.475,0,0,0,26.471,26.076,26.764,26.764,0,0,0,3.309-.209,26.853,26.853,0,0,1-3.308.209A26.311,26.311,0,0,1,110.665,488.294Z" transform="translate(-90.842 -432.703)" fill="#fffbf8"/>
    <path id="Tracé_40" data-name="Tracé 40" d="M247.053,405.424l.012.011c.065.059.129.118.194.179l-.194-.18-.012-.011-.086-.078-.041-.037.042.038Z" transform="translate(-173.618 -395.829)" fill="#fffbf8"/>
    <path id="Tracé_41" data-name="Tracé 41" d="M248.653,406.917l-.014-.013-.006-.005.005.006Z" transform="translate(-174.599 -396.742)" fill="#fffbf8"/>
    <path id="Tracé_42" data-name="Tracé 42" d="M249.116,407.362a.033.033,0,0,1,.008.008l0,0-.01-.01c-.043-.042-.087-.084-.131-.128s-.117-.112-.176-.168c.059.056.118.112.175.168S249.074,407.321,249.116,407.362Z" transform="translate(-174.7 -396.838)" fill="#fffbf8"/>
    <path id="Tracé_43" data-name="Tracé 43" d="M248,406.3c-.057-.054-.11-.105-.169-.16l-.007-.006.006.007C247.889,406.2,247.943,406.247,248,406.3Z" transform="translate(-174.133 -396.303)" fill="#fffbf8"/>
    <path id="Tracé_44" data-name="Tracé 44" d="M102.878,465.132v0c0,.009,0,.017,0,.024v-.029Z" transform="translate(-90.898 -430.182)" fill="#fffbf8"/>
    <rect id="Rectangle_16" data-name="Rectangle 16" width="0.002" height="0.002" transform="translate(11.975 35.053) rotate(-85.156)" fill="#fffbf8"/>
    <path id="Tracé_45" data-name="Tracé 45" d="M102.791,466.671v-.049c0-.024,0-.047,0-.069,0-.144.006-.284.012-.435,0-.036,0-.07,0-.105,0,.034,0,.069,0,.1-.006.151-.01.292-.013.436,0,.023,0,.046,0,.069v.051c0,.117,0,.235-.006.353v0C102.785,466.906,102.787,466.789,102.791,466.671Z" transform="translate(-90.845 -430.688)" fill="#fffbf8"/>
    <path id="Tracé_46" data-name="Tracé 46" d="M103.2,414.178l-.005.034-.007.045c-.01.063-.02.127-.028.19v.012c0,.012,0,.025,0,.037-.005.038-.01.075-.015.114l-.015.1,0,.018,0,.03v0l0,.015,0,.015v.007l0,.03,0,.023v0l0,.015c-.016.121-.032.243-.048.366s-.025.219-.037.33l-.014.125v0l0,.006v0c-.016.132-.029.267-.043.4-.01.1-.018.2-.028.3v.01l-.01.1c0,.039-.007.078-.01.118s-.007.083-.01.125c0,.021,0,.043-.006.064s-.006.064-.008.1-.006.08-.008.12l0,.056c-.012.137-.022.279-.03.443v.01c0,.069-.007.139-.011.209s-.008.145-.011.218v.053c0,.016,0,.032,0,.049v.026l0,.023c0,.082-.007.164-.01.247,0,.035,0,.069,0,.105-.006.15-.01.29-.012.435,0,.022,0,.046,0,.069v.049c0,.119-.006.235-.006.354v.221c0,.036,0,.072,0,.108s0,.051,0,.076,0,.051,0,.076,0,.07,0,.106v.117l0,.1a26.474,26.474,0,0,0,26.471,26.076,26.871,26.871,0,0,0,3.308-.209c.495-.061.988-.132,1.477-.22h0a30.613,30.613,0,0,1-11.58-12.647c-.153-.311-.3-.625-.441-.941-.016-.034-.033-.068-.048-.1a30.475,30.475,0,0,1,2.848-29.744,30.665,30.665,0,0,1,2.681-3.321,30.454,30.454,0,0,1,37.77-5.5l0,0a.033.033,0,0,0-.008-.008c-.042-.041-.087-.085-.131-.129s-.116-.112-.175-.168l-.054-.052,0,0-.014-.012-.006-.006-.009-.01c-.05-.048-.106-.1-.16-.149s-.11-.105-.17-.159l-.006-.007-.006-.007-.014-.012-.029-.027c-.065-.061-.129-.12-.194-.179l-.012-.012-.085-.077-.042-.038q-.141-.128-.28-.252c-.107-.095-.209-.184-.312-.273-.032-.029-.067-.057-.1-.086-.07-.06-.14-.121-.214-.181l-.142-.119-.077-.065,0,0-.057-.047-.029-.024c-.085-.071-.166-.138-.25-.2l-.012-.011-.006,0-.008-.006-.01-.008c-.061-.052-.125-.1-.186-.15h0l-.006-.006,0,0,0,0c-.2-.16-.405-.322-.613-.48l0,0-.006,0c-.055-.044-.111-.085-.168-.129l-.068-.052-.041-.032c-.009-.008-.019-.014-.029-.021l-.009-.007,0,0-.007-.006-.006,0-.01-.006-.116-.087-.042-.031-.158-.117-.05-.036-.09-.065-.063-.046h0l0,0,0,0,0,0c-.062-.046-.124-.091-.187-.135l-.044-.032-.018-.012-.016-.011c-.152-.107-.3-.214-.459-.321l0,0h0l-.006,0c-.069-.048-.138-.1-.207-.142l-.05-.034,0,0-.006,0c-.1-.067-.206-.137-.311-.2l-.017-.011h0l-.007-.006-.01-.006-.066-.043c-.075-.049-.149-.1-.224-.145l-.012-.008h0l-.011-.007c-.111-.073-.224-.143-.338-.214l-.011-.007h0l-.016-.01c-.115-.073-.232-.146-.35-.216l-.186-.112,0,0-.086-.051-.106-.063-.007,0h0l-.005,0-.065-.038-.253-.146-.063-.037-.087-.05c-.078-.046-.155-.091-.233-.134l-.023-.012c-.521-.292-1.052-.572-1.586-.837l-.035-.019-.006,0,0,0-.012-.006c-.117-.062-.235-.119-.355-.174l-.315-.15,0,0-.028-.013-.018-.008-.008,0h-.008c-.372-.176-.714-.328-1.044-.469l-.009,0-.007,0-.008,0-.008,0c-.079-.036-.158-.069-.239-.1l-.034-.014-.024-.01,0,0h0l-.142-.059-.152-.062-.071-.029c-.354-.142-.645-.257-.912-.356l-.16-.06-.022-.008-.168-.063c-.449-.162-.915-.322-1.384-.47l-.006,0-.006,0-.023-.007-.268-.084-.275-.084-.164-.05c-.2-.059-.4-.115-.583-.166h-.012l-.005,0-.006,0-.077-.02-.121-.033-.025-.007-.036-.011c-.386-.1-.781-.2-1.175-.288-.232-.055-.465-.106-.7-.156-.394-.084-.788-.168-1.186-.239-.148-.026-.295-.052-.443-.075l-.008,0h-.01c-.146-.026-.295-.049-.443-.071l-.206-.031-.257-.038q-.634-.088-1.274-.155c-.823-.086-1.652-.143-2.482-.174-.462-.018-.923-.028-1.384-.028-.777,0-1.557.029-2.334.078-.082,0-.164.007-.246.012-.859.06-1.715.149-2.561.266l-.455.067-.012,0H133.9l-30.7,30.7Z" transform="translate(-90.841 -383.043)" fill="#434244"/>
    <path id="Tracé_47" data-name="Tracé 47" d="M190.669,439.192l0-.028,0-.029c.008-.052.016-.105.022-.156l0-.012,0-.02,0-.022c.01-.067.022-.136.03-.2l0-.046.008-.045c0-.022.006-.044.01-.063l.028-.229.022-.158c.02-.152.035-.295.051-.437l0-.02c.016-.136.029-.265.041-.4.01-.109.022-.212.03-.312v-.006l.01-.1c.008-.073.014-.144.018-.215l0-.028,0-.028c.01-.093.016-.186.022-.278v-.014l0-.024c.012-.134.022-.277.03-.437v-.01c.01-.144.017-.285.026-.423l0-.042v-.057l0-.057c.008-.116.012-.235.016-.354.006-.16.01-.312.014-.464l0-.02v-.069c0-.109,0-.22,0-.33v-.124l0-.02c0-.1,0-.19,0-.283s0-.2,0-.3v-.008l0-.095a26.471,26.471,0,0,0-26.471-26.076,26.76,26.76,0,0,0-4.785.429A30.438,30.438,0,0,1,128.6,459.841l.008.008.022.02.02.02a.689.689,0,0,0,.067.065l.073.072c.059.059.118.117.18.174l.01.01.012.01c.1.095.215.207.33.312l.018.014.016.016c.075.071.15.143.227.212l.006.006.008.006c.132.123.267.243.405.364l.008.005.008.008.269.238.017.014.06.051.006,0,.261.226.053.046.012.011c.071.059.14.119.214.176l.028.022.026.023c.061.054.13.109.207.17l.026.02.024.02c.055.048.111.093.164.133l.018.014.016.014c.2.158.4.317.6.473.043.036.089.069.132.1l.152.115c.03.021.057.041.083.063l.049.036.247.184.077.055.125.089.016.012.018.012c.059.046.123.089.184.132l.068.048c.15.107.3.213.459.32l.014.008.014.01c.067.047.137.093.2.138l.052.034.17.112.18.121c.091.059.186.123.283.182s.192.123.285.182h.233l.417.4c.063.04.129.079.194.117.127.075.255.15.384.221l.012.008.012.008c.1.059.2.115.3.172.542.306,1.091.6,1.641.868.123.061.244.12.364.178l.053.028c.115.053.227.106.342.162.346.162.7.32,1.046.468l.008,0,.008,0c.085.038.174.075.259.111.026.01.053.022.083.035l.346.142c.283.115.589.234.909.354l.01,0,.01,0c.1.037.2.075.3.11l.014,0,.012,0c.469.172.933.33,1.38.47l.016.006.014,0c.091.032.18.059.271.087l.014,0,.012,0c.136.043.273.085.409.126l.115.034c.164.045.326.093.488.138l.253.069.02,0c1.012.273,2.042.5,3.059.682l.012,0,.012,0c.122.022.255.046.421.073h.01l.008,0c.164.028.3.049.425.067l.02,0,.02,0c.142.024.287.043.429.063l.012,0a37.3,37.3,0,0,0,10.281,0l.036-.006c.136-.02.271-.038.4-.059l.02,0,.014,0,30.7-30.7A.464.464,0,0,1,190.669,439.192Z" transform="translate(-105.668 -396.891)" fill="#262e3a"/>
  </g>
</svg>
