<svg xmlns="http://www.w3.org/2000/svg" width="111.124" height="94.486" viewBox="0 0 111.124 94.486">
  <g id="Groupe_11" data-name="Groupe 11" transform="translate(0 0)">
    <path id="Tracé_78" data-name="Tracé 78" d="M509.92,897.517h-.815v2.016h.815a1.008,1.008,0,1,0,0-2.016Z" transform="translate(-451.988 -811.123)" fill="none"/>
    <path id="Tracé_79" data-name="Tracé 79" d="M427.577,897.517a3.038,3.038,0,1,0,3.031,3.031A3.041,3.041,0,0,0,427.577,897.517Z" transform="translate(-405.693 -811.123)" fill="none"/>
    <path id="Tracé_80" data-name="Tracé 80" d="M543.058,901.9H544.7l-.828-2.283Z" transform="translate(-470.573 -812.27)" fill="none"/>
    <path id="Tracé_81" data-name="Tracé 81" d="M420.646,814.946l-.005-.01-2.716-4.7-21.533-37.3h-5.432l24.249,42-.005.009h5.443Z" transform="translate(-387.315 -742.928)" fill="#262e3a"/>
    <path id="Tracé_82" data-name="Tracé 82" d="M468.64,814.946l-.005-.01-2.716-4.7-2.714-4.7-2.716-4.7-2.714-4.7-2.716-4.7-10.672-18.485h-5.43l13.387,23.188,2.716,4.7,2.716,4.7,2.714,4.7,2.716,4.7-.007.01h5.442Z" transform="translate(-413.588 -742.928)" fill="#262e3a"/>
    <path id="Tracé_83" data-name="Tracé 83" d="M489.915,810.232l-2.714-4.7-2.716-4.7-2.714-4.7-2.716-4.7-2.714-4.7-2.716-4.7-5.242-9.079h-5.43l7.956,13.781,5.432,9.407,2.714,4.7,2.716,4.7,2.714,4.7,2.716,4.7-.007.01h5.443l-.005-.009Z" transform="translate(-426.724 -742.928)" fill="#262e3a"/>
    <path id="Tracé_84" data-name="Tracé 84" d="M517.847,706.637h-5.432l-19.822,34.335,2.716,4.7Z" transform="translate(-442.949 -706.637)" fill="#808183"/>
    <path id="Tracé_85" data-name="Tracé 85" d="M439.213,814.946h5.431l-.005-.01-2.716-4.7-2.714-4.7-2.716-4.7-16.1-27.892h-5.431l18.817,32.593,2.716,4.7,2.716,4.7-.007.01Z" transform="translate(-400.453 -742.928)" fill="#262e3a"/>
    <path id="Tracé_86" data-name="Tracé 86" d="M507.307,755.08l27.969-48.444h-5.431l-25.254,43.74.029.05Z" transform="translate(-449.517 -706.637)" fill="#808183"/>
    <path id="Tracé_87" data-name="Tracé 87" d="M519.305,764.487l33.4-57.851h-5.43l-30.685,53.146.029.05Z" transform="translate(-456.084 -706.637)" fill="#808183"/>
    <path id="Tracé_88" data-name="Tracé 88" d="M570.133,706.637H564.7l-36.115,62.552.029.05,2.687,4.654Z" transform="translate(-462.652 -706.637)" fill="#808183"/>
    <path id="Tracé_89" data-name="Tracé 89" d="M390.025,900.324a3.036,3.036,0,1,1-2.056-5.261,2.989,2.989,0,0,1,2.056.815l1.429-1.442a5.061,5.061,0,1,0,0,7.317Z" transform="translate(-382.909 -808.669)" fill="#262e3a"/>
    <path id="Tracé_90" data-name="Tracé 90" d="M425.139,893.034a5.06,5.06,0,1,0,5.06,5.06A5.066,5.066,0,0,0,425.139,893.034Zm0,8.1a3.038,3.038,0,1,1,3.031-3.044A3.043,3.043,0,0,1,425.139,901.138Z" transform="translate(-403.255 -808.669)" fill="#262e3a"/>
    <path id="Tracé_91" data-name="Tracé 91" d="M467.342,900.431l-2.964-7.4H462.2v10.121h2.016v-5.061l2.03,5.061h2.176l2.03-5.061v5.061h2.016V893.034h-2.176Z" transform="translate(-426.313 -808.669)" fill="#262e3a"/>
    <path id="Tracé_92" data-name="Tracé 92" d="M507.482,893.034h-2.831v10.121h2.016v-4.046h.828a3.038,3.038,0,0,0-.013-6.075Zm0,4.046h-.815v-2.016h.815a1.008,1.008,0,1,1,0,2.016Z" transform="translate(-449.549 -808.669)" fill="#262e3a"/>
    <path id="Tracé_93" data-name="Tracé 93" d="M538.073,893.034l-3.659,10.121h2.149l1.028-2.831H540.7l1.028,2.831h2.149l-3.658-10.121Zm.253,5.261.815-2.283.828,2.283Z" transform="translate(-465.842 -808.669)" fill="#262e3a"/>
    <path id="Tracé_94" data-name="Tracé 94" d="M582.929,893.034h-2.016v6.756l-4.046-6.756H574.5v10.121h2.016v-6.743l4.059,6.743h2.35Z" transform="translate(-487.786 -808.669)" fill="#262e3a"/>
    <path id="Tracé_95" data-name="Tracé 95" d="M616.952,903.155v-4.82l2.644-5.3h-2.257l-1.389,2.8-1.4-2.8h-2.257l2.644,5.3v4.82Z" transform="translate(-508.471 -808.669)" fill="#262e3a"/>
  </g>
</svg>
