<svg xmlns="http://www.w3.org/2000/svg" width="126.04" height="98.716" viewBox="0 0 126.04 98.716">
  <g id="icons8_Handshake_1" transform="translate(-0.96 -26.084)">
    <circle id="Ellipse_41" data-name="Ellipse 41" cx="9" cy="9" r="9" transform="translate(106 75)" fill="#fff"/>
    <circle id="Ellipse_42" data-name="Ellipse 42" cx="9" cy="9" r="9" transform="translate(4 35)" fill="#fff"/>
    <path id="Tracé_235" data-name="Tracé 235" d="M41.62,44l9.68-9.68a18,18,0,0,1,25.19-.26L86.85,44h37.11V84h-9.21L79.29,119.46a8,8,0,0,1-11.48-.18,8.227,8.227,0,0,1,.4-11.37l-4.23,4.22a8.247,8.247,0,0,1-10.77.93,7.947,7.947,0,0,1-.83-11.96l-2.55,2.55a8.218,8.218,0,0,1-11.37.41,8,8,0,0,1-.18-11.48l2.12-2.12.6-.6.11-.11a8,8,0,0,1-11.33-.02h0a7.928,7.928,0,0,1-2.33-5.74H3.96L4,44Z" fill="#fff"/>
    <path id="Tracé_236" data-name="Tracé 236" d="M115,72a11.983,11.983,0,0,0-10.42,17.93L77.17,117.34a4.992,4.992,0,0,1-7.06-7.06l4.49-4.49a3,3,0,0,0-4.24-4.24l-8.69,8.69a5.07,5.07,0,0,1-7.16,0,4.956,4.956,0,0,1,.04-7.03l.01-.01h0l5.88-5.88a3,3,0,0,0-4.24-4.24l-5.9,5.9-2.83,2.83a5,5,0,1,1-7.08-7.07l2.12-2.12.01-.01,8.01-8.01a3,3,0,0,0-4.24-4.24l-7.31,7.31h0a4.953,4.953,0,0,1-3.53,1.46h-.01a5.035,5.035,0,0,1-3.56-1.48,4.949,4.949,0,0,1,0-7.02L46.25,66.26a3,3,0,1,0-4.24-4.24L27.66,76.34a11.006,11.006,0,0,0,5.79,18.58,11,11,0,0,0,10.49,14.33,11.106,11.106,0,0,0,3.31-.5,11.03,11.03,0,0,0,15.74,7.82,11,11,0,0,0,18.41,5.02l27.35-27.35A12,12,0,1,0,115,72Zm0,18a6,6,0,1,1,6-6A6,6,0,0,1,115,90Z" fill="#f1e8d6"/>
    <path id="Tracé_237" data-name="Tracé 237" d="M124,47H102.66a3,3,0,0,1,0-6H124a3,3,0,0,1,0,6Z" fill="#f1e8d6"/>
    <path id="Tracé_238" data-name="Tracé 238" d="M90.73,43.57,78.57,31.89a21.11,21.11,0,0,0-29.39.3L40.37,41H24.61a12,12,0,1,0,0,6H41.62a3,3,0,0,0,2.12-.88l9.68-9.68a15.08,15.08,0,0,1,21-.21L86.58,47.9a5,5,0,0,1-6.93,7.22L68.9,44.79a3,3,0,0,0-4.15,4.33L75.5,59.44a10.919,10.919,0,0,0,7.61,3.06h.23a11,11,0,0,0,7.39-18.93ZM13,50a6,6,0,1,1,6-6A6,6,0,0,1,13,50Z" fill="#3a504e"/>
    <path id="Tracé_239" data-name="Tracé 239" d="M13.96,87h-10a3,3,0,0,1,0-6h10a3,3,0,0,1,0,6Z" fill="#3a504e"/>
  </g>
</svg>
