<svg xmlns="http://www.w3.org/2000/svg" width="42.538" height="42.533" viewBox="0 0 42.538 42.533">
  <path id="icons8_Password_Key" d="M28.52,0A11.154,11.154,0,0,0,20.6,3.429a10.968,10.968,0,0,0-3.376,9.011,13.122,13.122,0,0,0,2.153,5.768L8.133,29.478,6.7,28.042a2.367,2.367,0,0,0-1.17-.691,2.065,2.065,0,0,0-1.249.159A6.048,6.048,0,0,0,2.6,28.893L1.567,29.93A5.961,5.961,0,0,0,.212,31.6a1.985,1.985,0,0,0-.186,1.223A2.368,2.368,0,0,0,.717,34l1.435,1.435L1.036,36.575V36.6a3.5,3.5,0,0,0-.027,4.917h.027a3.487,3.487,0,0,0,4.917,0L24.32,23.152A12.659,12.659,0,0,0,31.2,25.358,11.1,11.1,0,0,0,39.1,21.929a11.011,11.011,0,0,0,3.376-9.037,14.276,14.276,0,0,0-4.359-8.479A13.776,13.776,0,0,0,28.52,0Zm0,1.7a12.108,12.108,0,0,1,8.4,3.907,12.656,12.656,0,0,1,3.854,7.469A9.166,9.166,0,0,1,37.9,20.733a9.317,9.317,0,0,1-6.7,2.924,12.165,12.165,0,0,1-8.426-3.907,12.675,12.675,0,0,1-3.854-7.469A9.167,9.167,0,0,1,21.8,4.625,9.375,9.375,0,0,1,28.52,1.7Zm.292,3.163a6.624,6.624,0,0,0-4.7,2.073,6.569,6.569,0,0,0-2.02,5.369,9.066,9.066,0,0,0,2.764,5.369,8.73,8.73,0,0,0,6.034,2.818,6.611,6.611,0,0,0,4.7-2.073,6.584,6.584,0,0,0,2.047-5.369,9.091,9.091,0,0,0-2.791-5.369A8.71,8.71,0,0,0,28.812,4.864Zm0,1.7A7.068,7.068,0,0,1,33.65,8.878a7.442,7.442,0,0,1,2.286,4.333,4.805,4.805,0,0,1-1.542,4.014,4.789,4.789,0,0,1-3.509,1.568,7.061,7.061,0,0,1-4.811-2.339,7.5,7.5,0,0,1-2.313-4.333A4.754,4.754,0,0,1,25.3,8.134,4.8,4.8,0,0,1,28.812,6.565ZM20.386,19.616a17.2,17.2,0,0,0,1.2,1.329,17.834,17.834,0,0,0,1.329,1.2L4.757,40.3a1.786,1.786,0,0,1-2.525-2.525ZM5.129,29.026a.279.279,0,0,1,.053,0c.033.007.116.037.292.213L6.91,30.674,3.348,34.236,1.913,32.8a.657.657,0,0,1-.213-.319c-.007-.037,0-.047.053-.159a6.589,6.589,0,0,1,1.037-1.2L3.8,30.089h.027A6.763,6.763,0,0,1,5,29.052.3.3,0,0,1,5.129,29.026Z" transform="translate(0.006)"/>
</svg>
