<svg xmlns="http://www.w3.org/2000/svg" width="51.552" height="57.5" viewBox="0 0 51.552 57.5">
  <path id="icons8_add_file" d="M6,3V54.552H29.359a15.829,15.829,0,1,0,16.3-25.218V16.074l-.558-.62L33.2,3.558,32.581,3ZM9.966,6.966H29.793v11.9h11.9v9.914A15.893,15.893,0,0,0,25.828,44.638,15.517,15.517,0,0,0,27,50.586H9.966Zm23.793,2.85L38.839,14.9H33.759ZM41.69,32.741a11.9,11.9,0,1,1-11.9,11.9A11.87,11.87,0,0,1,41.69,32.741Zm-1.983,3.966v5.948H33.759v3.966h5.948v5.948h3.966V46.621h5.948V42.655H43.672V36.707Z" transform="translate(-6 -3)" fill="#3a504e"/>
</svg>
