<svg xmlns="http://www.w3.org/2000/svg" width="60.896" height="58.242" viewBox="0 0 60.896 58.242">
  <path id="icons8_approval" d="M40.584,2.005a2.991,2.991,0,0,0-1.422.3L32,5.806,24.834,2.3a2.918,2.918,0,0,0-3.841,1.223l-3.88,7.118L9.256,12.019a2.915,2.915,0,0,0-2.384,3.243L7.913,23.3l-5.547,5.73a2.916,2.916,0,0,0-.023,4.028l5.57,5.889L6.8,46.846a2.912,2.912,0,0,0,2.344,3.271l7.971,1.491,3.738,7.044a2.905,2.905,0,0,0,3.818,1.269l7.322-3.477H32l7.163,3.5A2.914,2.914,0,0,0,43,58.732l3.88-7.118,7.858-1.383a2.915,2.915,0,0,0,2.384-3.243l-1.035-8.034,5.542-5.735a2.909,2.909,0,0,0,.023-4.023L56.082,23.3,57.2,15.4a2.917,2.917,0,0,0-2.35-3.272l-7.966-1.491L43.144,3.6A3.3,3.3,0,0,0,41.978,2.4,2.946,2.946,0,0,0,40.584,2.005Zm-1.314,6.72L42.4,14.631a2.908,2.908,0,0,0,2.071,1.5l6.566,1.212L50.114,23.9a2.9,2.9,0,0,0,.785,2.429l4.6,4.842L51.889,34.9l-.99,1.024a2.907,2.907,0,0,0-.785,2.43l.87,6.617L44.47,46.118a2.913,2.913,0,0,0-2.065,1.5L39.218,53.5l-5.946-2.908a2.907,2.907,0,0,0-2.555,0l-6.025,2.879-3.1-5.849a2.9,2.9,0,0,0-2.065-1.5L12.96,44.906l.922-6.543a2.909,2.909,0,0,0-.791-2.441l-4.6-4.836,4.6-4.751a2.918,2.918,0,0,0,.791-2.441l-.876-6.617,6.52-1.144a2.9,2.9,0,0,0,2.065-1.5l3.181-5.877,5.946,2.907a2.914,2.914,0,0,0,2.555,0Zm2.321,14.514L29.085,35.745l-5.223-5.223-4.119,4.119,9.342,9.343L45.71,27.358Z" transform="translate(-1.547 -2.003)" fill="#3a504e"/>
</svg>
