<svg xmlns="http://www.w3.org/2000/svg" width="57.771" height="57.771" viewBox="0 0 57.771 57.771">
  <path id="icons8_collaborating_in_circle" d="M30.892,2a8.23,8.23,0,0,0-7.685,5.452A22.1,22.1,0,0,0,8.184,28.307,21.931,21.931,0,0,0,9.9,36.536a8.129,8.129,0,0,0-3.764,6.73,8.221,8.221,0,0,0,2.41,5.8A12.267,12.267,0,0,0,2.006,59.771H6.132a8.253,8.253,0,0,1,16.506,0h4.127a12.271,12.271,0,0,0-6.541-10.707,8.453,8.453,0,0,0,.6-.737,22.11,22.11,0,0,0,19.811-.375,8.452,8.452,0,0,0,.915,1.112,12.267,12.267,0,0,0-6.536,10.707h4.127a8.253,8.253,0,0,1,16.506,0h4.127a12.271,12.271,0,0,0-6.541-10.707A8.171,8.171,0,0,0,51.17,35.975a22.147,22.147,0,0,0-12.452-28.2A8.261,8.261,0,0,0,30.892,2Zm0,4.127a4.127,4.127,0,1,1-4.127,4.127A4.1,4.1,0,0,1,30.892,6.127Zm-7.886,5.936a8.2,8.2,0,0,0,2.043,3.99,12.267,12.267,0,0,0-6.536,10.707H43.271a12.271,12.271,0,0,0-6.541-10.707,8.307,8.307,0,0,0,2.1-3.691,17.988,17.988,0,0,1,8.261,22.684,8.269,8.269,0,0,0-7.947,8.221c0,.25.054.485.077.729a17.8,17.8,0,0,1-16.712.544,8.03,8.03,0,0,0,.129-1.273,8.285,8.285,0,0,0-8.253-8.253c-.175,0-.323.09-.5.1a17.66,17.66,0,0,1-1.58-6.806A17.857,17.857,0,0,1,23.005,12.062Zm-8.62,27.076a4.127,4.127,0,1,1-4.127,4.127A4.1,4.1,0,0,1,14.385,39.139Zm33.012,0a4.127,4.127,0,1,1-4.127,4.127A4.1,4.1,0,0,1,47.4,39.139Z" transform="translate(-2.006 -2)" fill="#3a504e"/>
</svg>
