<svg xmlns="http://www.w3.org/2000/svg" width="39.126" height="39.126" viewBox="0 0 39.126 39.126">
  <path id="icons8_collaboration" d="M15.609,2c-6.5,0-9.356,4.336-9.356,7.781a6.824,6.824,0,0,0,3.241,5.811,11.406,11.406,0,0,0,6.115,1.718,11.8,11.8,0,0,0,2.688-.322,10.5,10.5,0,0,0,7.519,2.874,11.191,11.191,0,0,0,6.125-1.783,7.013,7.013,0,0,0,.641-11.348,10.428,10.428,0,0,0-6.766-2.18,12.824,12.824,0,0,0-2.753.287,7.516,7.516,0,0,0-.688-.66A10.428,10.428,0,0,0,15.609,2Zm0,1.7a8.744,8.744,0,0,1,5.678,1.786,5.97,5.97,0,0,1,.633.62l0,0a.851.851,0,0,0,.321.4,5.169,5.169,0,0,1,1.022,3.118,5.142,5.142,0,0,1-2.479,4.494,9.683,9.683,0,0,1-5.176,1.494,9.911,9.911,0,0,1-5.187-1.44A4.962,4.962,0,0,1,7.954,9.781C7.954,7.231,9.832,3.7,15.609,3.7ZM25.816,6.253a8.744,8.744,0,0,1,5.678,1.786,5.259,5.259,0,0,1,1.977,4.135,5.142,5.142,0,0,1-2.479,4.494,9.746,9.746,0,0,1-10.815-.3,9.748,9.748,0,0,0,1.557-.842,7,7,0,0,0,3.231-5.906,6.927,6.927,0,0,0-.816-3.253A11.786,11.786,0,0,1,25.816,6.253ZM4.977,15.609A2.782,2.782,0,0,0,2,18.161a2.782,2.782,0,0,0,2.977,2.552,2.782,2.782,0,0,0,2.977-2.552A2.782,2.782,0,0,0,4.977,15.609Zm33.172,0a2.782,2.782,0,0,0-2.977,2.552,2.782,2.782,0,0,0,2.977,2.552,2.782,2.782,0,0,0,2.977-2.552A2.782,2.782,0,0,0,38.149,15.609ZM4.977,17.31c.807,0,1.276.486,1.276.851s-.469.851-1.276.851S3.7,18.526,3.7,18.161,4.17,17.31,4.977,17.31Zm33.172,0c.807,0,1.276.486,1.276.851s-.469.851-1.276.851-1.276-.486-1.276-.851S37.343,17.31,38.149,17.31Zm-25.916,3.4a6.7,6.7,0,0,0-4.386,1.341A4.559,4.559,0,0,0,6.253,25.6a6.684,6.684,0,0,0,.236,1.543c.052.213.064.236.1.382a2.351,2.351,0,0,0-.341,1.264,2.26,2.26,0,0,0,.568,1.638c.173.173.36.144.555.219A5.705,5.705,0,0,0,7.8,31.936a4.817,4.817,0,0,0,.44.689c.036.046.1.081.138.125v1.319a1.789,1.789,0,0,1-.866.768c-.539.286-1.28.559-2.05.915a6.951,6.951,0,0,0-2.248,1.517A4.689,4.689,0,0,0,2,40.224a.851.851,0,0,0,.849.9H40.276a.851.851,0,0,0,.849-.9,4.424,4.424,0,0,0-1.389-3A7.96,7.96,0,0,0,37.2,35.735c-.873-.353-1.721-.628-2.341-.919a1.9,1.9,0,0,1-.962-.753V32.749c.035-.044.1-.078.138-.125a4.8,4.8,0,0,0,.439-.688A5.719,5.719,0,0,0,34.9,30.65c.2-.075.382-.046.555-.219a2.26,2.26,0,0,0,.568-1.638,2.351,2.351,0,0,0-.341-1.264c.041-.146.053-.169.1-.382a6.685,6.685,0,0,0,.236-1.543,4.415,4.415,0,0,0-.832-2.665,3.526,3.526,0,0,0-2.329-1.248l-.334-.562a.851.851,0,0,0-.731-.417,6.7,6.7,0,0,0-4.386,1.341,4.559,4.559,0,0,0-1.595,3.55,6.685,6.685,0,0,0,.236,1.543c.052.213.064.236.1.382a2.351,2.351,0,0,0-.341,1.264,2.26,2.26,0,0,0,.568,1.638c.173.173.36.144.555.219a5.708,5.708,0,0,0,.425,1.286,4.818,4.818,0,0,0,.44.689c.036.046.1.081.138.125v1.319a1.789,1.789,0,0,1-.866.768c-.539.286-1.28.559-2.05.915a6.951,6.951,0,0,0-2.248,1.517,4.688,4.688,0,0,0-1.214,2.955q0,.026,0,.051,0-.026,0-.051a4.424,4.424,0,0,0-1.389-3,7.96,7.96,0,0,0-2.537-1.492c-.873-.353-1.721-.628-2.341-.919a1.9,1.9,0,0,1-.962-.753V32.749c.035-.044.1-.078.138-.125a4.8,4.8,0,0,0,.439-.688,5.719,5.719,0,0,0,.427-1.286c.2-.075.382-.046.555-.219a2.26,2.26,0,0,0,.568-1.638,2.351,2.351,0,0,0-.341-1.264c.041-.146.053-.169.1-.382A6.685,6.685,0,0,0,16.46,25.6a4.415,4.415,0,0,0-.832-2.665A3.526,3.526,0,0,0,13.3,21.691l-.334-.562a.851.851,0,0,0-.731-.417Zm-8.958,1.7A1.276,1.276,0,1,0,4.552,23.69a1.276,1.276,0,0,0-1.276-1.276Zm36.575,0a1.276,1.276,0,1,0,1.276,1.276A1.276,1.276,0,0,0,39.85,22.414Zm-28.066.06.223.374a.851.851,0,0,0,.731.417,1.7,1.7,0,0,1,1.528.7,2.837,2.837,0,0,1,.492,1.641,6.694,6.694,0,0,1-.189,1.141c-.1.412-.2.734-.2.734a.851.851,0,0,0,.319.942.628.628,0,0,1,.068.372c0,.39-.084.45-.07.435s.034-.01-.037-.01a.851.851,0,0,0-.846.758,3.674,3.674,0,0,1-.4,1.16,3.277,3.277,0,0,1-.282.445c-.08.1-.177.143-.033.07a.851.851,0,0,0-.462.758v1.914a.851.851,0,0,0,.056.3,3.338,3.338,0,0,0,1.882,1.733c.774.363,1.632.634,2.427.955a6.569,6.569,0,0,1,2.01,1.156,2.6,2.6,0,0,1,.638.957H4.062a3.321,3.321,0,0,1,.4-1A5.447,5.447,0,0,1,6.178,37.3c.686-.317,1.438-.588,2.133-.957a3.378,3.378,0,0,0,1.713-1.714.851.851,0,0,0,.056-.3V32.408a.851.851,0,0,0-.464-.758c.143.073.047.033-.033-.07a3.29,3.29,0,0,1-.281-.445,3.669,3.669,0,0,1-.4-1.16.851.851,0,0,0-.846-.758c-.071,0-.051,0-.037.01s-.07-.045-.07-.435a.628.628,0,0,1,.068-.372.851.851,0,0,0,.319-.942s-.1-.322-.2-.734A6.7,6.7,0,0,1,7.954,25.6a2.741,2.741,0,0,1,.985-2.244A4.918,4.918,0,0,1,11.785,22.474Zm19.563,0,.223.374a.851.851,0,0,0,.731.417,1.7,1.7,0,0,1,1.528.7,2.837,2.837,0,0,1,.492,1.641,6.694,6.694,0,0,1-.189,1.141c-.1.412-.2.734-.2.734a.851.851,0,0,0,.319.942.628.628,0,0,1,.068.372c0,.39-.084.45-.07.435s.034-.01-.037-.01a.851.851,0,0,0-.846.758,3.674,3.674,0,0,1-.4,1.16,3.277,3.277,0,0,1-.282.445c-.08.1-.177.143-.033.07a.851.851,0,0,0-.462.758v1.914a.851.851,0,0,0,.056.3,3.338,3.338,0,0,0,1.882,1.733c.774.363,1.632.634,2.427.955a6.569,6.569,0,0,1,2.01,1.156,2.6,2.6,0,0,1,.638.957H23.625a3.322,3.322,0,0,1,.4-1A5.447,5.447,0,0,1,25.741,37.3c.685-.317,1.438-.588,2.133-.957a3.378,3.378,0,0,0,1.713-1.714.851.851,0,0,0,.056-.3V32.408a.851.851,0,0,0-.464-.758c.143.073.047.033-.033-.07a3.291,3.291,0,0,1-.281-.445,3.669,3.669,0,0,1-.4-1.16.851.851,0,0,0-.846-.758c-.071,0-.051,0-.037.01s-.07-.045-.07-.435a.628.628,0,0,1,.068-.372.851.851,0,0,0,.319-.942s-.1-.322-.2-.734a6.694,6.694,0,0,1-.189-1.141,2.741,2.741,0,0,1,.985-2.244A4.918,4.918,0,0,1,31.348,22.474Z" transform="translate(-2 -2)"/>
</svg>
