<svg xmlns="http://www.w3.org/2000/svg" width="96.843" height="119.747" viewBox="0 0 96.843 119.747">
  <g id="Groupe_9" data-name="Groupe 9" transform="translate(0 0)">
    <path id="Tracé_48" data-name="Tracé 48" d="M446.962,596.842a3.161,3.161,0,0,0-1.206-1.388,3.422,3.422,0,0,0-1.8-.489,3.467,3.467,0,0,0-2.426.946,4.251,4.251,0,0,0-1.022,3.189,3.989,3.989,0,0,0,.977,2.823,3.313,3.313,0,0,0,2.456,1.022,3.258,3.258,0,0,0,2.472-1.037,4.173,4.173,0,0,0,.962-2.945A5.063,5.063,0,0,0,446.962,596.842Z" transform="translate(-424.799 -484.526)" fill="none"/>
    <rect id="Rectangle_17" data-name="Rectangle 17" width="18.043" height="18.043" transform="translate(9.855 48.402) rotate(-45.001)" fill="none"/>
    <rect id="Rectangle_18" data-name="Rectangle 18" width="18.043" height="18.043" transform="translate(35.644 22.613) rotate(-45)" fill="none"/>
    <rect id="Rectangle_19" data-name="Rectangle 19" width="18.043" height="18.043" transform="translate(35.644 74.192) rotate(-45.001)" fill="none"/>
    <rect id="Rectangle_20" data-name="Rectangle 20" width="18.043" height="18.043" transform="translate(61.433 48.402) rotate(-45.001)" fill="none"/>
    <rect id="Rectangle_21" data-name="Rectangle 21" width="18.043" height="6.968" transform="translate(56.506 43.475) rotate(-45.001)" fill="#808183"/>
    <rect id="Rectangle_22" data-name="Rectangle 22" width="18.043" height="6.968" transform="translate(30.717 69.264) rotate(-44.999)" fill="#808183"/>
    <rect id="Rectangle_23" data-name="Rectangle 23" width="18.043" height="6.968" transform="translate(48.402 35.371) rotate(-45.001)" fill="#808183"/>
    <rect id="Rectangle_24" data-name="Rectangle 24" width="18.043" height="6.968" transform="translate(22.613 61.16) rotate(-45)" fill="#808183"/>
    <rect id="Rectangle_25" data-name="Rectangle 25" width="6.968" height="18.043" transform="translate(22.613 35.644) rotate(-45)" fill="#808183"/>
    <rect id="Rectangle_26" data-name="Rectangle 26" width="6.968" height="18.043" transform="translate(30.717 27.54) rotate(-45)" fill="#808183"/>
    <rect id="Rectangle_27" data-name="Rectangle 27" width="6.968" height="18.043" transform="translate(56.506 53.33) rotate(-45)" fill="#808183"/>
    <rect id="Rectangle_28" data-name="Rectangle 28" width="6.968" height="18.043" transform="translate(48.402 61.433) rotate(-45)" fill="#808183"/>
    <path id="Tracé_49" data-name="Tracé 49" d="M505.767,527.705l-4.927-4.927-12.758,12.758-12.758-12.758-4.927,4.927,17.686,17.686Z" transform="translate(-439.679 -448.586)" fill="#262e3a"/>
    <path id="Tracé_50" data-name="Tracé 50" d="M431.836,441.125l-4.927-4.927-17.685,17.686,17.685,17.685,4.927-4.927-12.758-12.758Z" transform="translate(-409.223 -405.48)" fill="#262e3a"/>
    <path id="Tracé_51" data-name="Tracé 51" d="M561.9,436.2l-4.927,4.927,12.758,12.758-12.758,12.758,4.927,4.927,17.686-17.685Z" transform="translate(-482.785 -405.48)" fill="#262e3a"/>
    <path id="Tracé_52" data-name="Tracé 52" d="M500.84,397.637l4.927-4.927-17.685-17.686L470.4,392.71l4.927,4.927,12.758-12.758Z" transform="translate(-439.679 -375.024)" fill="#262e3a"/>
    <path id="Tracé_53" data-name="Tracé 53" d="M417.048,602.072a4.537,4.537,0,0,0,1.572-2.564l.031-.091-1.541-.382-.031.092A3.322,3.322,0,0,1,416.041,601a2.944,2.944,0,0,1-1.892.625,3.374,3.374,0,0,1-1.709-.457,2.71,2.71,0,0,1-1.145-1.4,6.232,6.232,0,0,1-.061-4.12,2.991,2.991,0,0,1,1.083-1.465,3.408,3.408,0,0,1,1.938-.534,2.654,2.654,0,0,1,1.663.488,2.952,2.952,0,0,1,1.007,1.556l.031.076,1.526-.351-.03-.091a4.235,4.235,0,0,0-1.511-2.228,4.41,4.41,0,0,0-2.655-.778,5.368,5.368,0,0,0-2.548.61,4.4,4.4,0,0,0-1.786,1.831,6.028,6.028,0,0,0-.626,2.792,6.85,6.85,0,0,0,.549,2.747,4.188,4.188,0,0,0,1.633,1.968,5.008,5.008,0,0,0,2.762.686A4.478,4.478,0,0,0,417.048,602.072Z" transform="translate(-409.275 -483.21)" fill="#262e3a"/>
    <path id="Tracé_54" data-name="Tracé 54" d="M446.761,600.424a5.927,5.927,0,0,0,.641-2.792,6.154,6.154,0,0,0-.611-2.747,4.585,4.585,0,0,0-1.785-1.908,5.11,5.11,0,0,0-2.625-.686,4.852,4.852,0,0,0-3.632,1.45,6.134,6.134,0,0,0-.793,6.576,4.571,4.571,0,0,0,1.77,1.923,4.988,4.988,0,0,0,2.64.7,5.221,5.221,0,0,0,2.548-.641A4.382,4.382,0,0,0,446.761,600.424Zm-4.395,1.19a3.313,3.313,0,0,1-2.456-1.022,3.989,3.989,0,0,1-.977-2.823,4.252,4.252,0,0,1,1.022-3.19,3.467,3.467,0,0,1,2.426-.946,3.421,3.421,0,0,1,1.8.489,3.161,3.161,0,0,1,1.206,1.388,5.065,5.065,0,0,1,.412,2.121,4.173,4.173,0,0,1-.962,2.945A3.258,3.258,0,0,1,442.366,601.614Z" transform="translate(-423.225 -483.195)" fill="#262e3a"/>
    <rect id="Rectangle_29" data-name="Rectangle 29" width="1.48" height="10.3" transform="translate(38.063 109.447)" fill="#262e3a"/>
    <path id="Tracé_55" data-name="Tracé 55" d="M475.713,603.29l2.319-6.546v-3.662l-2.456,7c-.2.564-.352,1.007-.458,1.358l-.412-1.221-2.456-7.233h-.168v3.738l2.274,6.561Z" transform="translate(-440.518 -483.543)" fill="#262e3a"/>
    <rect id="Rectangle_30" data-name="Rectangle 30" width="1.495" height="10.3" transform="translate(29.518 109.447)" fill="#262e3a"/>
    <path id="Tracé_56" data-name="Tracé 56" d="M507.872,598.254a3.317,3.317,0,0,0,.549-3.662,2.564,2.564,0,0,0-.87-1.007,3.063,3.063,0,0,0-1.3-.488,8.456,8.456,0,0,0-1.587-.107h-1.892v1.373h2a5.661,5.661,0,0,1,1.251.091,1.388,1.388,0,0,1,.808.565,1.671,1.671,0,0,1,.305,1.037,1.6,1.6,0,0,1-.519,1.282,2.8,2.8,0,0,1-1.816.458h-2.029v1.388h2.014A4.156,4.156,0,0,0,507.872,598.254Z" transform="translate(-455.8 -483.543)" fill="#262e3a"/>
    <rect id="Rectangle_31" data-name="Rectangle 31" width="1.541" height="10.3" transform="translate(44.885 109.447)" fill="#262e3a"/>
    <path id="Tracé_57" data-name="Tracé 57" d="M530.908,592.99h-1.587l-4.029,10.3h1.633l.457-1.206h-.015l1.16-3.128.244-.641.854-2.274h.016a14.281,14.281,0,0,0,.457-1.526c.153.488.367,1.084.626,1.755l1.037,2.686h-2.64l-.473,1.266h3.6l1.205,3.067h1.755Z" transform="translate(-467.011 -483.543)" fill="#262e3a"/>
    <path id="Tracé_58" data-name="Tracé 58" d="M568.871,600.68v2.609H570.4v-10.3h-1.5v7.736Z" transform="translate(-488.707 -483.543)" fill="#262e3a"/>
    <rect id="Rectangle_32" data-name="Rectangle 32" width="1.434" height="10.3" transform="translate(73.389 109.447)" fill="#262e3a"/>
    <path id="Tracé_59" data-name="Tracé 59" d="M563.571,600.538l-4.242-6.21v2.624l4.242,6.226Z" transform="translate(-483.956 -484.209)" fill="#262e3a"/>
    <path id="Tracé_60" data-name="Tracé 60" d="M594.567,592.99l-2.029,3.021c-.4.6-.747,1.159-1.052,1.648v-.016l-.855,1.3v4.349h1.557v-4.349l4.2-5.951Z" transform="translate(-499.54 -483.543)" fill="#262e3a"/>
    <path id="Tracé_61" data-name="Tracé 61" d="M586.5,596.087l-2.06-3.1h-1.892l3.723,5.463.87-1.343Z" transform="translate(-495.516 -483.543)" fill="#262e3a"/>
  </g>
</svg>
