<svg xmlns="http://www.w3.org/2000/svg" width="99.87" height="95.007" viewBox="0 0 99.87 95.007">
  <g id="Groupe_10" data-name="Groupe 10" transform="translate(0 0)">
    <path id="Tracé_62" data-name="Tracé 62" d="M112.741,907.643a2.73,2.73,0,1,0,2.724,2.724A2.732,2.732,0,0,0,112.741,907.643Z" transform="translate(-93.074 -819.909)" fill="none"/>
    <path id="Tracé_63" data-name="Tracé 63" d="M193.156,907.643h-.733v1.812h.733a.906.906,0,1,0,0-1.812Z" transform="translate(-141.09 -819.909)" fill="none"/>
    <path id="Tracé_64" data-name="Tracé 64" d="M118.8,783.381h16.5l-24.3-26.758H94.5Z" transform="translate(-84.039 -731.925)" fill="none"/>
    <path id="Tracé_65" data-name="Tracé 65" d="M202.4,756.344h-16.5l24.3,26.758h16.5Z" transform="translate(-137.294 -731.762)" fill="none"/>
    <path id="Tracé_66" data-name="Tracé 66" d="M225.512,911.737h1.476l-.744-2.052Z" transform="translate(-160.368 -821.098)" fill="none"/>
    <path id="Tracé_67" data-name="Tracé 67" d="M102.046,748.71H76.626l30.3,33.363h25.419Zm-17.961,3.3h16.5l24.3,26.76h-16.5Z" transform="translate(-73.627 -727.314)" fill="#d0d1d3"/>
    <path id="Tracé_68" data-name="Tracé 68" d="M127.624,697.45l-25.578,20.11H76.626l5.6-4.4A73.462,73.462,0,0,1,127.624,697.45Z" transform="translate(-73.627 -697.45)" fill="#262e3a"/>
    <path id="Tracé_69" data-name="Tracé 69" d="M193.456,748.43h-25.42l30.3,33.363h25.42Zm-17.961,3.3h16.5l24.3,26.759H199.8Z" transform="translate(-126.883 -727.151)" fill="#d0d1d3"/>
    <path id="Tracé_70" data-name="Tracé 70" d="M230.343,831.44l-5.6,4.4a73.475,73.475,0,0,1-45.4,15.711l25.579-20.11Z" transform="translate(-133.471 -775.513)" fill="#262e3a"/>
    <path id="Tracé_71" data-name="Tracé 71" d="M75.837,909.826a2.728,2.728,0,1,1-1.847-4.728,2.687,2.687,0,0,1,1.847.732l1.284-1.3a4.548,4.548,0,1,0,0,6.576Z" transform="translate(-69.441 -817.363)" fill="#a6a8aa"/>
    <path id="Tracé_72" data-name="Tracé 72" d="M110.212,903.274a4.548,4.548,0,1,0,4.548,4.548A4.553,4.553,0,0,0,110.212,903.274Zm0,7.284a2.73,2.73,0,1,1,2.724-2.736A2.735,2.735,0,0,1,110.212,910.558Z" transform="translate(-90.545 -817.363)" fill="#a6a8aa"/>
    <path id="Tracé_73" data-name="Tracé 73" d="M151.335,909.922l-2.664-6.648h-1.956v9.1h1.812v-4.548l1.824,4.548h1.956l1.824-4.548v4.548h1.812v-9.1h-1.956Z" transform="translate(-114.461 -817.363)" fill="#a6a8aa"/>
    <path id="Tracé_74" data-name="Tracé 74" d="M190.627,903.274h-2.544v9.1h1.812v-3.636h.744a2.73,2.73,0,0,0-.012-5.459Zm0,3.636h-.733V905.1h.733a.906.906,0,1,1,0,1.812Z" transform="translate(-138.562 -817.363)" fill="#a6a8aa"/>
    <path id="Tracé_75" data-name="Tracé 75" d="M220.377,903.274l-3.288,9.1h1.932l.924-2.544h2.8l.924,2.544H225.6l-3.288-9.1ZM220.6,908l.732-2.052.744,2.052Z" transform="translate(-155.461 -817.363)" fill="#a6a8aa"/>
    <path id="Tracé_76" data-name="Tracé 76" d="M263.729,903.274h-1.812v6.072l-3.636-6.072h-2.124v9.1h1.812v-6.06l3.648,6.06h2.112Z" transform="translate(-178.222 -817.363)" fill="#a6a8aa"/>
    <path id="Tracé_77" data-name="Tracé 77" d="M297.171,912.37v-4.332l2.376-4.764h-2.028l-1.248,2.52-1.26-2.52h-2.028l2.376,4.764v4.332Z" transform="translate(-199.677 -817.363)" fill="#a6a8aa"/>
  </g>
</svg>
