<svg xmlns="http://www.w3.org/2000/svg" width="63.693" height="63.693" viewBox="0 0 63.693 63.693">
  <path id="icons8_location_off" d="M32.4,3V8.053A26.916,26.916,0,0,0,8.053,32.4H3v4.9H8.053A26.916,26.916,0,0,0,32.4,61.641v5.053h4.9V61.641A26.916,26.916,0,0,0,61.641,37.3h5.053V32.4H61.641A26.916,26.916,0,0,0,37.3,8.053V3Zm0,9.876V17.7h4.9V12.876A21.977,21.977,0,0,1,56.741,32.4H51.995v4.9h4.746A21.977,21.977,0,0,1,37.3,56.818V51.995H32.4v4.823A21.977,21.977,0,0,1,12.952,37.3H17.7V32.4H12.952A21.977,21.977,0,0,1,32.4,12.876ZM29.258,25.737l-3.522,3.522,5.588,5.588-5.588,5.589,3.522,3.522,5.588-5.589,5.589,5.589,3.522-3.522-5.589-5.589,5.589-5.588-3.522-3.522-5.589,5.588Z" transform="translate(-3 -3)" fill="#3a504e"/>
</svg>
