<svg xmlns="http://www.w3.org/2000/svg" width="52.366" height="54.242" viewBox="0 0 52.366 54.242">
  <g id="Groupe_104" data-name="Groupe 104" transform="translate(-1.701 -70.597)">
    <path id="icons8_time" d="M18.46,2V4.552h1.7v.934a17.862,17.862,0,1,0,3.4,0V4.552h1.7V2ZM34.822,4.676,33.116,6.382l3.926,3.926L38.747,8.6ZM21.862,7.1A16.161,16.161,0,1,1,5.7,23.264,16.148,16.148,0,0,1,21.862,7.1Zm-8.514,6.8a.851.851,0,0,0-.593,1.46l7.466,7.466A1.7,1.7,0,0,0,22.3,24.907l1.51,1.51a.851.851,0,1,0,1.2-1.2L23.5,23.7a1.7,1.7,0,0,0-2.082-2.082l-7.464-7.464A.851.851,0,0,0,13.348,13.9Z" transform="translate(-2.299 68.597)"/>
    <circle id="Ellipse_34" data-name="Ellipse 34" cx="19" cy="19" r="19" transform="translate(16.067 86.84)" fill="#fff"/>
    <path id="icons8_coins" d="M17.829,0a16.016,16.016,0,0,0-5.222.78,5.33,5.33,0,0,0-1.671.891,1.866,1.866,0,0,0-.748,1.385,1.513,1.513,0,0,0,.032.3.525.525,0,0,0-.032.207V6.622a1.513,1.513,0,0,0,.032.3.524.524,0,0,0-.032.207V8.819A19.508,19.508,0,0,0,7.641,8.66a16.015,16.015,0,0,0-5.222.78,5.329,5.329,0,0,0-1.672.891A1.865,1.865,0,0,0,0,11.717a1.514,1.514,0,0,0,.032.3A.525.525,0,0,0,0,12.226v3.056a1.514,1.514,0,0,0,.032.3A.525.525,0,0,0,0,15.792v3.056a1.514,1.514,0,0,0,.032.3A.525.525,0,0,0,0,19.358v3.056A1.866,1.866,0,0,0,.747,23.8a5.331,5.331,0,0,0,1.672.891,16.061,16.061,0,0,0,5.222.78,16.061,16.061,0,0,0,5.222-.78,5.331,5.331,0,0,0,1.672-.891,1.866,1.866,0,0,0,.748-1.385v-2.2a19.486,19.486,0,0,0,2.547.159,16.061,16.061,0,0,0,5.222-.78,5.331,5.331,0,0,0,1.672-.891,1.866,1.866,0,0,0,.748-1.385V14.264a.524.524,0,0,0-.032-.207,1.513,1.513,0,0,0,.032-.3V10.7a.524.524,0,0,0-.032-.207,1.513,1.513,0,0,0,.032-.3V7.132a.524.524,0,0,0-.032-.207,1.513,1.513,0,0,0,.032-.3V3.566a.534.534,0,0,0-.048-.207,1.392,1.392,0,0,0,.048-.3,1.866,1.866,0,0,0-.748-1.385A5.331,5.331,0,0,0,23.05.78,16.016,16.016,0,0,0,17.829,0Zm0,1.019a15.15,15.15,0,0,1,4.871.716,4.6,4.6,0,0,1,1.369.716.847.847,0,0,1,.382.6.847.847,0,0,1-.382.6,4.6,4.6,0,0,1-1.369.716,15.15,15.15,0,0,1-4.871.716,15.15,15.15,0,0,1-4.871-.716,4.6,4.6,0,0,1-1.369-.716.847.847,0,0,1-.382-.6.847.847,0,0,1,.382-.6,4.6,4.6,0,0,1,1.369-.716A15.15,15.15,0,0,1,17.829,1.019ZM11.206,4.633a5.863,5.863,0,0,0,1.4.7,16.016,16.016,0,0,0,5.222.78,16.016,16.016,0,0,0,5.222-.78,5.863,5.863,0,0,0,1.4-.7v1.99a.847.847,0,0,1-.382.6,4.6,4.6,0,0,1-1.369.716,15.151,15.151,0,0,1-4.871.716,15.151,15.151,0,0,1-4.871-.716,4.6,4.6,0,0,1-1.369-.716.847.847,0,0,1-.382-.6Zm0,3.566a5.864,5.864,0,0,0,1.4.7,16.008,16.008,0,0,0,5.222.78A16.008,16.008,0,0,0,23.05,8.9a5.864,5.864,0,0,0,1.4-.7v1.99a.847.847,0,0,1-.382.6,4.6,4.6,0,0,1-1.369.716,15.151,15.151,0,0,1-4.871.716,18.609,18.609,0,0,1-2.595-.175v-.032a1.393,1.393,0,0,0,.048-.3,1.866,1.866,0,0,0-.748-1.385,5.329,5.329,0,0,0-1.672-.891,11.978,11.978,0,0,0-1.656-.446ZM7.641,9.679a15.149,15.149,0,0,1,4.871.716,4.6,4.6,0,0,1,1.369.716.847.847,0,0,1,.382.6.847.847,0,0,1-.382.6,4.6,4.6,0,0,1-1.369.716,15.151,15.151,0,0,1-4.871.716,15.151,15.151,0,0,1-4.871-.716A4.6,4.6,0,0,1,1.4,12.322a.847.847,0,0,1-.382-.6.847.847,0,0,1,.382-.6A4.6,4.6,0,0,1,2.769,10.4,15.149,15.149,0,0,1,7.641,9.679Zm16.811,2.085v1.99a.847.847,0,0,1-.382.6,4.6,4.6,0,0,1-1.369.716,15.151,15.151,0,0,1-4.871.716A17.968,17.968,0,0,1,15.25,15.6h-.016c0-.006,0-.01,0-.016a1.393,1.393,0,0,0,.048-.3v-2.2a19.838,19.838,0,0,0,2.547.159,16.008,16.008,0,0,0,5.222-.78A5.864,5.864,0,0,0,24.451,11.764ZM1.018,13.293a5.864,5.864,0,0,0,1.4.7,16.016,16.016,0,0,0,5.222.78,16.016,16.016,0,0,0,5.222-.78,5.864,5.864,0,0,0,1.4-.7v1.99a.847.847,0,0,1-.382.6,4.6,4.6,0,0,1-1.369.716,15.151,15.151,0,0,1-4.871.716A15.151,15.151,0,0,1,2.769,16.6,4.6,4.6,0,0,1,1.4,15.887a.847.847,0,0,1-.382-.6ZM24.451,15.33v1.99a.847.847,0,0,1-.382.6,4.6,4.6,0,0,1-1.369.716,15.151,15.151,0,0,1-4.871.716,18.175,18.175,0,0,1-2.595-.191v-.016a1.393,1.393,0,0,0,.048-.3v-2.2a19.531,19.531,0,0,0,2.547.159,16.061,16.061,0,0,0,5.222-.78A5.864,5.864,0,0,0,24.451,15.33ZM1.018,16.859a5.864,5.864,0,0,0,1.4.7,16.061,16.061,0,0,0,5.222.78,16.061,16.061,0,0,0,5.222-.78,5.864,5.864,0,0,0,1.4-.7v1.99a.847.847,0,0,1-.382.6,4.6,4.6,0,0,1-1.369.716,15.151,15.151,0,0,1-4.871.716,15.151,15.151,0,0,1-4.871-.716A4.6,4.6,0,0,1,1.4,19.453a.847.847,0,0,1-.382-.6Zm0,3.566a5.864,5.864,0,0,0,1.4.7,16.061,16.061,0,0,0,5.222.78,16.061,16.061,0,0,0,5.222-.78,5.864,5.864,0,0,0,1.4-.7v1.99a.847.847,0,0,1-.382.6,4.6,4.6,0,0,1-1.369.716,15.151,15.151,0,0,1-4.871.716,15.151,15.151,0,0,1-4.871-.716A4.6,4.6,0,0,1,1.4,23.019a.847.847,0,0,1-.382-.6Z" transform="translate(20.415 91.237)"/>
  </g>
</svg>
