<svg xmlns="http://www.w3.org/2000/svg" xmlns:xlink="http://www.w3.org/1999/xlink" version="1.1" viewBox="8 8 24 24">
<g id="surface1">
<path style=" stroke:none;fill-rule:nonzero;fill:rgb(94.509804%,90.980392%,83.921569%);fill-opacity:1;" d="M 14.179688 8 C 8.449219 8 8 8.449219 8 14.179688 L 8 25.820312 C 8 31.550781 8.449219 32 14.179688 32 L 25.820312 32 C 31.550781 32 32 31.550781 32 25.820312 L 32 14.214844 C 32 8.453125 31.546875 8 25.785156 8 Z M 13.601562 8.800781 L 26.398438 8.800781 C 30.851562 8.800781 31.199219 9.148438 31.199219 13.601562 L 31.199219 26.398438 C 31.199219 30.851562 30.851562 31.199219 26.398438 31.199219 L 23.769531 31.199219 L 23.769531 23.484375 L 26.761719 23.484375 L 27.210938 19.914062 L 23.773438 19.914062 L 23.773438 17.417969 C 23.773438 16.429688 24.4375 15.921875 25.148438 15.921875 C 25.859375 15.921875 27.332031 15.898438 27.332031 15.898438 L 27.332031 12.707031 C 27.332031 12.707031 26.023438 12.554688 24.6875 12.554688 C 23.5625 12.554688 22.328125 12.875 21.335938 13.890625 C 20.328125 14.929688 20.183594 16.457031 20.183594 18.324219 L 20.183594 19.917969 L 17.183594 19.917969 L 17.183594 23.484375 L 20.183594 23.484375 L 20.183594 31.199219 L 13.601562 31.199219 C 9.148438 31.199219 8.800781 30.851562 8.800781 26.398438 L 8.800781 13.601562 C 8.800781 9.148438 9.148438 8.800781 13.601562 8.800781 Z M 13.601562 8.800781 "/>
</g>
</svg>