<svg xmlns="http://www.w3.org/2000/svg" width="39.148" height="36.595" viewBox="0 0 39.148 36.595">
  <path id="icons8_handshake_heart" d="M13.054,3.977a11.077,11.077,0,0,0-7.825,18.9l2.608,2.608a2.7,2.7,0,0,0-.056.542,2.444,2.444,0,0,0,.764,1.784l1.19,1.193a2.309,2.309,0,0,0,1.724.758,2.546,2.546,0,0,0,.744,1.621l1.193,1.19a2.447,2.447,0,0,0,1.621.751,2.447,2.447,0,0,0,.758,1.718l1.19,1.193a2.307,2.307,0,0,0,1.721.758,2.434,2.434,0,0,0,.748,1.621l1.193,1.19a2.437,2.437,0,0,0,1.784.767,2.584,2.584,0,0,0,1.784-.767l2.552-2.552a2.34,2.34,0,0,0,.741-1.475,2.459,2.459,0,0,0,1.472-.734l1.532-1.532a2.546,2.546,0,0,0,.744-1.621,2.309,2.309,0,0,0,1.724-.758l1.19-1.193a2.361,2.361,0,0,0,.754-1.631,2.38,2.38,0,0,0,1.711-.837l1.19-1.19a2.443,2.443,0,0,0,.189-3.346,11.056,11.056,0,0,0,3.13-7.712A10.921,10.921,0,0,0,37.89,7.312a11.221,11.221,0,0,0-15.736-.083l-.638.638-.638-.638A11.029,11.029,0,0,0,13.054,3.977Zm0,1.721a9.619,9.619,0,0,1,6.635,2.721l.595.595-4.336,4.339a3.9,3.9,0,0,0,0,5.529,4,4,0,0,0,2.8,1.193,3.729,3.729,0,0,0,2.724-1.11l5.1-5.1,9.954,10.117a.821.821,0,0,1,0,1.193l-1.19,1.19a.823.823,0,0,1-1.189,0l-5.19-5.1a.841.841,0,0,0-1.189,1.189l5.19,5.1a.823.823,0,0,1,0,1.19l-1.193,1.193a.827.827,0,0,1-1.193,0l-5.1-5.1a.828.828,0,0,0-.638-.249.837.837,0,0,0-.638.249.827.827,0,0,0,0,1.193l5.1,5.1a.762.762,0,0,1,.259.591.77.77,0,0,1-.259.6L27.769,33.85a.822.822,0,0,1-.684.239,2.585,2.585,0,0,0-.339-.405l-1.19-1.193a2.5,2.5,0,0,0-1.714-.694,2.577,2.577,0,0,0-.751-1.688L21.9,28.919a2.348,2.348,0,0,0-1.625-.751,2.43,2.43,0,0,0-.761-1.714l-1.19-1.193a2.5,2.5,0,0,0-1.714-.694,2.577,2.577,0,0,0-.751-1.688l-1.19-1.189a2.47,2.47,0,0,0-3.575,0L8.758,24.028,6.419,21.689a9.4,9.4,0,0,1,0-13.27A9.619,9.619,0,0,1,13.054,5.7Zm16.928.086a9.617,9.617,0,0,1,6.632,2.721l.086.083a9.184,9.184,0,0,1,2.721,6.635,9.327,9.327,0,0,1-2.6,6.5L27.258,12.16c-.017-.013-.036-.02-.05-.033s-.02-.037-.036-.05a.823.823,0,0,0-1.19,0l-5.7,5.7a2.259,2.259,0,0,1-3.146,0,2.255,2.255,0,0,1,0-3.23l4.891-4.891.04.04,1.276-1.189A9.48,9.48,0,0,1,29.982,5.784ZM12.971,22.54a.909.909,0,0,1,.591.253l1.193,1.193a.827.827,0,0,1,0,1.193L12.2,27.729a.827.827,0,0,1-1.193,0l-1.19-1.193a.769.769,0,0,1-.253-.595.781.781,0,0,1,.253-.6l2.552-2.552A.776.776,0,0,1,12.971,22.54Zm3.568,3.655a.77.77,0,0,1,.6.259l1.189,1.19a.819.819,0,0,1,0,1.189l-2.552,2.552a.823.823,0,0,1-1.189,0L13.4,30.195a.818.818,0,0,1,0-1.19l2.552-2.552A.762.762,0,0,1,16.539,26.194Zm3.608,3.575a.687.687,0,0,1,.562.253L21.9,31.215a.827.827,0,0,1,0,1.193L19.35,34.959a.827.827,0,0,1-1.193,0l-1.193-1.193a.769.769,0,0,1-.253-.595.78.78,0,0,1,.253-.6l2.552-2.552A.9.9,0,0,1,20.147,29.77Zm3.622,3.655a.77.77,0,0,1,.6.259l1.189,1.19a.819.819,0,0,1,0,1.189L23,38.614a.823.823,0,0,1-1.189,0l-1.19-1.189a.77.77,0,0,1-.259-.6.762.762,0,0,1,.259-.591l2.552-2.552A.762.762,0,0,1,23.769,33.424Z" transform="translate(-1.975 -3.977)"/>
</svg>
