<svg xmlns="http://www.w3.org/2000/svg" width="68.656" height="68.656" viewBox="0 0 68.656 68.656">
  <path id="icons8_key_5" d="M31.742,48.547a16.865,16.865,0,0,1-16.8-16.8,17.066,17.066,0,0,1,.292-2.684L.525,14.412,0,13.829V0H13.07V5.6h5.6v5.6h5.6v5.543a17.1,17.1,0,0,1,7.469-1.809,16.8,16.8,0,1,1,0,33.61Zm0-3.734a13.07,13.07,0,0,0,0-26.141,13.736,13.736,0,0,0-6.36,1.634l-.467.233H20.539v-5.6h-5.6v-5.6h-5.6v-5.6h-5.6v8.519L18.5,27.074l.7.642-.175.992a18.907,18.907,0,0,0-.35,3.034A13.1,13.1,0,0,0,31.742,44.813Zm3.734-5.6a3.734,3.734,0,1,1,3.734-3.734A3.732,3.732,0,0,1,35.477,39.211Z" transform="translate(68.656 34.328) rotate(135)" fill="#3a504e"/>
</svg>
