<svg xmlns="http://www.w3.org/2000/svg" width="42.83" height="49.473" viewBox="0 0 42.83 49.473">
  <path id="icons8_thumbs_up_1" d="M43.773,17.952l.309-2.061A5.624,5.624,0,0,1,46.3,12.129a5.5,5.5,0,0,1,4.174-1.082,5.685,5.685,0,0,1,4.844,6.39L55.006,19.5a35.939,35.939,0,0,1-1.443,6.184l-.979,2.834H60a6.654,6.654,0,0,1,5.153,2.422A6.578,6.578,0,0,1,66.6,36.4L63.3,54.95a6.69,6.69,0,0,1-6.6,5.514H40.887a1.546,1.546,0,1,1,0-3.092H56.655a3.594,3.594,0,0,0,3.556-2.989l3.3-18.551a3.583,3.583,0,0,0-3.556-4.225H50.368a1.45,1.45,0,0,1-1.237-.67,1.665,1.665,0,0,1-.206-1.391l1.7-4.844a29.617,29.617,0,0,0,1.288-5.617l.309-2.061a2.527,2.527,0,0,0-2.216-2.886,2.578,2.578,0,0,0-1.907.515,2.339,2.339,0,0,0-.979,1.7l-.309,2.061a26.174,26.174,0,0,1-6.184,13.6,1.534,1.534,0,0,1-2.319-2.01A23.685,23.685,0,0,0,43.773,17.952ZM23.882,35.214a1.518,1.518,0,0,1,1.546-1.546H34.7a1.518,1.518,0,0,1,1.546,1.546v23.7A1.518,1.518,0,0,1,34.7,60.464H25.428A1.4,1.4,0,0,1,24.346,60a1.483,1.483,0,0,1-.464-1.082Zm9.275,22.158V51.189H26.974v6.184Z" transform="translate(-23.882 -10.991)" fill="#3a504e"/>
</svg>
