<svg xmlns="http://www.w3.org/2000/svg" width="20.6" height="20.6" viewBox="0 0 20.6 20.6">
  <path id="pinterest" d="M5,5V25.6H25.6V5ZM6.873,6.873H23.727V23.727H12.972a7.592,7.592,0,0,0,.563-1.408c.125-.481.828-2.58.828-2.58a2.746,2.746,0,0,0,2.354,1.18c3.1,0,5.137-2.709,5.137-6.245a6.024,6.024,0,0,0-6.329-5.927c-4.431,0-6.779,2.973-6.779,6.212,0,1.5.8,3.377,2.081,3.976.2.092.3.049.344-.139.034-.142.208-.839.284-1.161a.3.3,0,0,0-.071-.293A4,4,0,0,1,10.618,15a4.444,4.444,0,0,1,4.636-4.457,4.054,4.054,0,0,1,4.289,4.177c0,2.775-1.213,4.561-3.039,4.561-1.008,0-1.948-.695-1.71-1.719a20.759,20.759,0,0,0,.849-3.42c0-2.215-3.153-1.909-3.153,1.046a3.78,3.78,0,0,0,.3,1.525c-1,4.437-1.278,5.4-1.191,7.013H6.873Z" transform="translate(-5 -5)" fill="#3a504e"/>
</svg>
