<svg xmlns="http://www.w3.org/2000/svg" width="37.425" height="42.369" viewBox="0 0 37.425 42.369">
  <path id="icons8_protect_1" d="M21.713,0c-2.087,0-3.847,1.153-6.459,2.5A44.858,44.858,0,0,1,3.665,6.672L3,6.831V7.5c0,13.031,4.569,21.739,9.144,27.139a30.241,30.241,0,0,0,9.223,7.549l.372.186.372-.186S40.425,32.721,40.425,7.5V6.831l-.664-.159A44.856,44.856,0,0,1,28.172,2.5C25.56,1.153,23.8,0,21.713,0Zm0,1.7c1.4,0,3.02.94,5.688,2.312a47.9,47.9,0,0,0,11.27,4.12c-.312,23.065-15.892,31.717-16.985,32.3a27,27,0,0,1-8.267-6.884C9.143,28.5,4.91,20.38,4.754,8.134a47.9,47.9,0,0,0,11.27-4.12C18.692,2.641,20.314,1.7,21.713,1.7ZM28.251,12.44l-.452.718L20.889,23.9l-4.572-4.12-.611-.558-1.143,1.249.638.585,5.263,4.784.744.665.558-.851,7.469-11.589.452-.718Z" transform="translate(-3)"/>
</svg>
